<?xml version="1.0" encoding="utf-8"?>
<!-- Generator: Adobe Illustrator 25.0.1, SVG Export Plug-In . SVG Version: 6.00 Build 0)  -->
<svg version="1.1" id="icon" xmlns="http://www.w3.org/2000/svg" xmlns:xlink="http://www.w3.org/1999/xlink" x="0px" y="0px"
	 viewBox="0 0 30 22" style="enable-background:new 0 0 30 22;" xml:space="preserve">
<g>
	<path d="M29.9,10.7C27.5,4.4,21.7,0.3,15,0C8.3,0.3,2.5,4.4,0.1,10.7c-0.1,0.2-0.1,0.5,0,0.7C2.5,17.6,8.3,21.7,15,22
		c6.7-0.3,12.5-4.4,14.9-10.7C30,11.1,30,10.9,29.9,10.7z M15,20c-5.3,0-10.9-3.9-12.9-9c2-5.1,7.6-9,12.9-9s10.9,3.9,12.9,9
		C25.9,16.1,20.3,20,15,20z"/>
	<path d="M15,5c-3.3,0-6,2.7-6,6s2.7,6,6,6s6-2.7,6-6S18.3,5,15,5z M15,15c-2.2,0-4-1.8-4-4s1.8-4,4-4s4,1.8,4,4S17.2,15,15,15z"/>
</g>
</svg>
