<?xml version="1.0" encoding="utf-8"?>
<!-- Generator: Adobe Illustrator 25.0.1, SVG Export Plug-In . SVG Version: 6.00 Build 0)  -->
<svg version="1.1" id="Layer_1" xmlns="http://www.w3.org/2000/svg" xmlns:xlink="http://www.w3.org/1999/xlink" x="0px" y="0px"
	 viewBox="0 0 19.9 14.6" style="enable-background:new 0 0 19.9 14.6;" xml:space="preserve">
<style type="text/css">
	.st0{stroke:#000000;stroke-width:0.75;stroke-miterlimit:10;}
</style>
<g>
	<path class="st0" d="M11.5,1.2C7.8,0.6,4.3,2.8,3.8,6.1c-0.2,1.4,0.2,2.9,0.9,4l-0.1,0.3l-0.4,1.4l-0.4,1.5L5.5,13L7,12.6l0.6-0.1
		c0.6,0.3,1.3,0.5,1.9,0.6c3.7,0.6,7.1-1.6,7.6-4.9C17.7,4.9,15.1,1.8,11.5,1.2z M9.7,12.2c-0.1,0-0.2,0-0.3-0.1
		c-0.6-0.1-1.1-0.3-1.6-0.6l-1,0.2l-0.3,0.1l-1.2,0.3l0.3-1l0.1-0.3L5.8,10C5.6,9.6,5.3,9.2,5.1,8.8C4.8,8,4.7,7.1,4.8,6.2
		c0.4-2.8,3.4-4.7,6.5-4.2c3.1,0.5,5.3,3.2,4.9,6C15.8,10.8,12.9,12.7,9.7,12.2z"/>
</g>
</svg>
