<?xml version="1.0" encoding="utf-8"?>
<!-- Generator: Adobe Illustrator 25.0.1, SVG Export Plug-In . SVG Version: 6.00 Build 0)  -->
<svg version="1.1" id="icon" xmlns="http://www.w3.org/2000/svg" xmlns:xlink="http://www.w3.org/1999/xlink" x="0px" y="0px"
	 viewBox="0 0 30 22" style="enable-background:new 0 0 30 22;" xml:space="preserve">
<style type="text/css">
	.st0{stroke:#000000;stroke-miterlimit:10;}
</style>
<path class="st0" d="M27.4,10.8c-2-5.2-6.8-8.6-12.4-8.9C9.4,2.1,4.6,5.5,2.6,10.8c-0.1,0.2-0.1,0.4,0,0.6c2,5.1,6.8,8.5,12.4,8.8
	c5.6-0.2,10.4-3.6,12.4-8.9C27.4,11.1,27.4,10.9,27.4,10.8z M15,18.5c-4.4,0-9-3.2-10.7-7.5C6,6.8,10.6,3.5,15,3.5s9,3.2,10.7,7.5
	C24,15.2,19.4,18.5,15,18.5z"/>
<path class="st0" d="M15,8.3c-1.5,0-2.7,1.2-2.7,2.7s1.2,2.7,2.7,2.7s2.7-1.2,2.7-2.7S16.5,8.3,15,8.3z M15,12.8
	c-1,0-1.8-0.8-1.8-1.8S14,9.2,15,9.2s1.8,0.8,1.8,1.8S16,12.8,15,12.8z"/>
</svg>
